<svg xmlns="http://www.w3.org/2000/svg" viewBox="0 0 200 203">
  <path d="m131.4 15.93c-20.7 14.37-43.88 27.16-65.61 41.84-4.03 2.74-8.55 6.09-12.89 8.49-9.93 3.52-21.77-1.47-23.69-12.35-1.19-6.84 0.48-12.25 6.55-18.23 12.44-12.28 27.99-21.85 45.12-24.57 13.23-2.1 21.32-2.08 34.44 0 4.8 0.76 10.61 2.58 16.08 4.82z" fill="#0033cc"/>
  <path d="m151.6 27.35c9.78 7.46 16.66 14.8 23.86 25.26l-0.31 0.79c-21.58 14.89-45.01 28.76-67.22 43.09l-0.81 0.63-0.81 0.3-0.66 0.79-0.97 0.31-0.6 0.79-1.13 0.46-0.6 0.64-0.97 0.3-0.6 0.79-1.03 0.47-0.71 0.62-1.18 0.47-0.6 0.79-1.08 0.46-0.76 0.63-0.97 0.47-0.71 0.78-1.13 0.47-0.76 0.63-1.02 0.46-0.71 0.79-1.08 0.46-0.71 0.79-1.08 0.47-0.76 0.63-0.97 0.46-0.7 0.79-1.03 0.47-0.82 0.62-1.02 0.47-0.65 0.78-1.08 0.47-0.76 0.63-0.92 0.61-1.08 0.47-0.71 0.79-1.13 0.47-0.76 0.62-0.92 0.62-1.02 0.46-0.76 0.79-1.03 0.47-0.76 0.63-0.92 0.61-0.97 0.63-0.76 0.62-1.08 0.47-0.65 0.79-1.13 0.47-0.71 0.62-0.92 0.62-0.97 0.62-0.82 0.63-1.02 0.47-0.71 0.62-1.02 0.57-0.87 0.62-35.47 20.11c-7.24-9.21-12.07-19.87-12.62-33.05l3.1-2.39 1.13-0.47 0.76-0.94 1.28-0.73 1.02-0.62 0.97-0.63 1.13-0.77 1.08-0.57 0.82-0.83 1.18-0.62 1.13-0.47 0.81-0.84 1.18-0.57 1.03-0.62 0.92-0.62 1.07-0.62 0.82-0.84 1.18-0.57 1.94-1.24 1.08-0.73 1.13-0.63 1.02-0.57 1.08-0.73 1.13-0.62 0.97-0.62 1.02-0.63 0.98-0.73 1.02-0.63 1.02-0.72 1.13-0.73 0.97-0.63 0.92-0.73 1.13-0.62 0.87-0.84 1.18-0.62 1.08-0.73 1.07-0.62 1.08-0.62 1.13-0.73 1.13-0.63 1.07-0.72 1.08-0.73 1.08-0.62 1.07-0.73 1.13-0.73 1.03-0.62 1.07-0.73 1.03-0.62 1.13-0.73 1.02-0.73 1.18-0.62 1.02-0.72 1.18-0.63 1.08-0.62 0.97-0.84 1.18-0.62 1.03-0.62 1.02-0.73 1.13-0.62 1.13-0.73 1.07-0.73 1.13-0.62 1.13-0.73 0.97-0.62 1.08-0.63 1.08-0.73 1.13-0.73 1.07-0.62 1.08-0.73 1.13-0.62 1.02-0.73 1.08-0.62 1.02-0.73 1.13-0.62 1.08-0.73 1.07-0.73 1.13-0.62 1.08-0.73 1.02-0.62 1.08-0.73 1.13-0.73 1.07-0.62 1.03-0.73 1.07-0.62 1.02-0.73 2.16-1.24 1.12-0.73 1.08-0.62 1.07-0.73 1.18-0.63 1.08-0.73 1.07-0.72 1.13-0.63 1.08-0.78 1.13-0.73 1.12-0.62 1.08-0.73 1.13-0.73 1.13-0.72 1.07-0.73 1.08-0.73 1.13-0.73 1.07-0.72 1.08-0.73 2.26-1.46 1.07-0.78 1.08-0.73 1.13-0.72 1.07-0.73 2.26-1.46 1.12-0.72 1.08-0.73 1.07-0.73 1.13-0.73 1.13-0.72 1.07-0.47 1.08-0.73 2.26-1.46 1.18-0.62 1.13-0.72 1.18-0.73 1.07-0.63 3.29-0.9z" fill="#0033cc"/>
  <path d="m185.1 72.02c4.34 9.61 5.77 23.24 4.44 37.21l-1.38 1.14-44.25 28.77-18.03 11.37-1.08 0.67-0.76 0.84-1.13 0.47-0.76 0.73-1.18 0.57-0.76 0.83-1.18 0.57-1.02 0.63-0.77 0.83-1.12 0.57-1.02 0.62-0.97 0.62-1.13 0.79-1.03 0.62-1.02 0.63-1.13 0.72-1.13 0.63-1.02 0.62-0.97 0.73-1.13 0.57-0.97 0.84-1.13 0.73-1.02 0.62-1.08 0.79-1.12 0.57-0.98 0.78-1.07 0.62-1.03 0.73-1.12 0.73-1.08 0.62-0.97 0.62-1.02 0.79-1.08 0.62-1.07 0.79-1.08 0.57-1.08 0.73-1.02 0.78-1.02 0.63-1.13 0.62-1.08 0.62-1.13 0.73-1.07 0.62-1.03 0.79-1.18 0.57-1.02 0.73-1.13 0.79-1.18 0.62-1.13 0.62-0.97 0.89-1.18 0.57-1.13 0.62-4.98 1.49c-9.36-4.24-14.86-6.48-24.34-13.62-2.92-1.98-5.14-3.85-7.26-6.8l1.18-0.78 1.07-0.89 1.08-0.78 1.18-0.73 1.08-0.73 1.13-0.83 1.17-0.73 1.13-0.73 1.13-0.78 2.36-1.46 1.13-0.62 1.18-0.73 1.13-0.73 1.17-0.73 2.36-1.46 1.18-0.72 2.36-1.46 1.13-0.83 1.17-0.73 1.18-0.78 2.36-1.46 1.18-0.83 4.72-2.92 1.17-0.88 3.54-2.19 1.13-0.83 2.36-1.46 1.18-0.83 3.54-2.19 1.18-0.78 1.18-0.73 1.12-0.73 1.13-0.83 1.23-0.78 1.18-0.73 1.13-0.99 1.18-0.73 1.13-0.94 1.18-0.83 1.23-0.83 1.23-0.73 1.23-0.83 1.23-0.84 1.28-0.83 1.34-0.83 1.33-0.84 1.33-0.89 1.33-0.93 1.39-0.99 1.43-0.99 1.49-1.05 1.53-1.14 1.54-1.15 1.74-1.2 1.84-1.19 1.89-1.31 1.99-1.35 2.09-1.44 2.2-1.49 2.25-1.57 2.36-1.67 2.52-1.76 2.61-1.83 2.77-1.93 2.92-2.03 3.07-2.13 3.24-2.24 3.44-2.34 3.65-2.49 3.88-2.59 4.14-2.81 4.44-2.9 4.72-3.07 5.03-3.28 8.39-4.42v4.63z" fill="#0033cc"/>
  <path d="m172.4 155.1c-8.09 11.08-15.54 17.69-28.22 25.61l-1.99 1.09-3.08 1.72-3.44 1.93-2.51 1.3-2.72 1.24-2.96 1.2-3.23 0.62-3.44 0.99-3.59 0.67-12.86 1.35 3.44-3.11 2.36-1.77 2.09-1.82 1.99-1.5 4.2-2.6 2.14-1.58 2.2-1.19 2.09-1.62 35.07-22.43c4.34-1.24 8.04-1.24 12.46-0.1z" fill="#0033cc"/>
</svg>
